name rise30.2954peak35.7071fall66.7804.mot
datacolumns 19
datarows 12
range 8.46830200000000 8.48664200000000
endheader
time	ground_force1_vx	ground_force1_vy	ground_force1_vz	ground_force1_px	ground_force1_py	ground_force1_pz	ground_force2_vx	ground_force2_vy	ground_force2_vz	ground_force2_px	ground_force2_py	ground_force2_pz	ground_torque1_x	ground_torque1_y	ground_torque1_z	ground_torque2_x	ground_torque2_y	ground_torque2_z	
8.46830200000000	66.76740400000000	780.76882400000000	60.48748700000000	0.33546900000000	0.00000000000000	0.11725800000000	0.00000000000000	0.00000000000000	0.00000000000000	0.00000000000000	0.00000000000000	0.00000000000000	0.00000000000000	24.80724900000000	0.00000000000000	0.00000000000000	0.00000000000000	0.00000000000000	
8.46997400000000	66.16625200000000	783.95227799999998	60.56788800000000	0.33484500000000	0.00000000000000	0.11723200000000	0.00000000000000	0.00000000000000	0.00000000000000	0.00000000000000	0.00000000000000	0.00000000000000	0.00000000000000	24.88566000000000	0.00000000000000	0.00000000000000	0.00000000000000	0.00000000000000	
8.47163600000000	65.55788099999999	786.95368800000006	60.64609000000000	0.33423800000000	0.00000000000000	0.11720600000000	0.00000000000000	0.00000000000000	0.00000000000000	0.00000000000000	0.00000000000000	0.00000000000000	0.00000000000000	24.96561200000000	0.00000000000000	0.00000000000000	0.00000000000000	0.00000000000000	
8.47330200000000	64.94300000000000	789.77071400000000	60.72197800000000	0.33364700000000	0.00000000000000	0.11718100000000	0.00000000000000	0.00000000000000	0.00000000000000	0.00000000000000	0.00000000000000	0.00000000000000	0.00000000000000	25.04686800000000	0.00000000000000	0.00000000000000	0.00000000000000	0.00000000000000	
8.47497300000000	64.32227200000000	792.40129999999999	60.79536300000000	0.33307100000000	0.00000000000000	0.11715800000000	0.00000000000000	0.00000000000000	0.00000000000000	0.00000000000000	0.00000000000000	0.00000000000000	0.00000000000000	25.12914100000000	0.00000000000000	0.00000000000000	0.00000000000000	0.00000000000000	
8.47663800000000	63.69631700000000	794.84369200000003	60.86598300000000	0.33250700000000	0.00000000000000	0.11713500000000	0.00000000000000	0.00000000000000	0.00000000000000	0.00000000000000	0.00000000000000	0.00000000000000	0.00000000000000	25.21210100000000	0.00000000000000	0.00000000000000	0.00000000000000	0.00000000000000	
8.47830800000000	63.06571100000000	797.09644700000001	60.93351300000000	0.33195400000000	0.00000000000000	0.11711400000000	0.00000000000000	0.00000000000000	0.00000000000000	0.00000000000000	0.00000000000000	0.00000000000000	0.00000000000000	25.29537500000000	0.00000000000000	0.00000000000000	0.00000000000000	0.00000000000000	
8.47997700000000	62.43099400000000	799.15844200000004	60.99756400000000	0.33141100000000	0.00000000000000	0.11709300000000	0.00000000000000	0.00000000000000	0.00000000000000	0.00000000000000	0.00000000000000	0.00000000000000	0.00000000000000	25.37855100000000	0.00000000000000	0.00000000000000	0.00000000000000	0.00000000000000	
8.48163700000000	61.79266700000000	801.02888800000005	61.05769600000000	0.33087500000000	0.00000000000000	0.11707400000000	0.00000000000000	0.00000000000000	0.00000000000000	0.00000000000000	0.00000000000000	0.00000000000000	0.00000000000000	25.46118600000000	0.00000000000000	0.00000000000000	0.00000000000000	0.00000000000000	
8.48330700000000	61.15119300000000	802.70732799999996	61.11341700000000	0.33034500000000	0.00000000000000	0.11705600000000	0.00000000000000	0.00000000000000	0.00000000000000	0.00000000000000	0.00000000000000	0.00000000000000	0.00000000000000	25.54280500000000	0.00000000000000	0.00000000000000	0.00000000000000	0.00000000000000	
8.48497100000000	60.50700700000000	804.19365300000004	61.16419500000000	0.32981900000000	0.00000000000000	0.11703900000000	0.00000000000000	0.00000000000000	0.00000000000000	0.00000000000000	0.00000000000000	0.00000000000000	0.00000000000000	25.62290800000000	0.00000000000000	0.00000000000000	0.00000000000000	0.00000000000000	
8.48664200000000	59.86051000000000	805.48810100000003	61.20946400000000	0.32929500000000	0.00000000000000	0.11702300000000	0.00000000000000	0.00000000000000	0.00000000000000	0.00000000000000	0.00000000000000	0.00000000000000	0.00000000000000	25.70097600000000	0.00000000000000	0.00000000000000	0.00000000000000	0.00000000000000	
